<svg width="500" height="400" viewBox="0 0 500 400" fill="none" xmlns="http://www.w3.org/2000/svg">
  <!-- Doctor -->
  <g transform="translate(100, 20)">
    <!-- Lab coat -->
    <path d="M90 340V140C90 130 80 120 70 120H50C40 120 30 130 30 140V340" fill="#EEEEEE" stroke="#333" stroke-width="2"/>
    <path d="M30 200L10 260V340H30" fill="#EEEEEE" stroke="#333" stroke-width="2"/>
    <path d="M90 200L110 260V340H90" fill="#EEEEEE" stroke="#333" stroke-width="2"/>
    
    <!-- Shirt -->
    <rect x="40" y="140" width="40" height="100" fill="#A1D2F7" stroke="#333" stroke-width="1"/>
    <rect x="30" y="240" width="60" height="100" fill="#A1D2F7" stroke="#333" stroke-width="1"/>
    
    <!-- Head -->
    <circle cx="60" cy="80" r="40" fill="#FFDBAC" stroke="#333" stroke-width="2"/>
    
    <!-- Hair -->
    <path d="M30 70C30 50 45 40 60 40C75 40 90 50 90 70" fill="#333" stroke="#333" stroke-width="1"/>
    
    <!-- Face -->
    <circle cx="45" cy="75" r="5" fill="#333"/> <!-- Left eye -->
    <circle cx="75" cy="75" r="5" fill="#333"/> <!-- Right eye -->
    <path d="M50 90H70" stroke="#333" stroke-width="2"/> <!-- Mouth -->
    
    <!-- Stethoscope -->
    <path d="M70 130C70 130 85 120 85 110C85 105 80 100 75 100C70 100 65 105 65 110C65 115 70 120 70 120" stroke="#333" stroke-width="2" fill="none"/>
    
    <!-- Tie -->
    <path d="M60 140V240" stroke="#333" stroke-width="1" fill="none"/>
    <path d="M55 140H65L60 160L55 140Z" fill="#0066CC" stroke="#333" stroke-width="1"/>
    <path d="M55 160L60 240L65 160" fill="#0066CC" stroke="#333" stroke-width="1"/>
  </g>
  
  <!-- Nurse/Doctor 2 -->
  <g transform="translate(280, 40)">
    <!-- Scrubs -->
    <path d="M50 120L20 140V340H130L100 140L50 120Z" fill="#A1D2F7" stroke="#333" stroke-width="2"/>
    
    <!-- Arms -->
    <path d="M20 180L-20 240V320H20" fill="#A1D2F7" stroke="#333" stroke-width="2"/>
    <path d="M130 180L170 240V320H130" fill="#A1D2F7" stroke="#333" stroke-width="2"/>
    
    <!-- Head -->
    <circle cx="75" cy="80" r="40" fill="#FFDBAC" stroke="#333" stroke-width="2"/>
    
    <!-- Hair -->
    <path d="M50 55C60 40 90 40 100 55" fill="#A0A0A0" stroke="#333" stroke-width="1"/>
    <path d="M45 70C45 50 60 30 75 30C90 30 105 50 105 70" fill="#A0A0A0" stroke="#333" stroke-width="1"/>
    
    <!-- Face -->
    <circle cx="60" cy="75" r="5" fill="#333"/> <!-- Left eye -->
    <circle cx="90" cy="75" r="5" fill="#333"/> <!-- Right eye -->
    <path d="M65 95H85" stroke="#333" stroke-width="2"/> <!-- Mouth -->
    
    <!-- Arms crossed -->
    <path d="M20 180C40 160 110 160 130 180" fill="none" stroke="#333" stroke-width="2"/>
  </g>
  
  <!-- Hand waving -->
  <g transform="translate(200, 100)">
    <path d="M0 0C10 -10 20 -10 30 0" fill="none" stroke="#FFDBAC" stroke-width="12" stroke-linecap="round"/>
    <path d="M0 0V30" fill="none" stroke="#FFDBAC" stroke-width="12" stroke-linecap="round"/>
    <path d="M30 0V30" fill="none" stroke="#FFDBAC" stroke-width="12" stroke-linecap="round"/>
    <path d="M0 30H30" fill="none" stroke="#FFDBAC" stroke-width="12" stroke-linecap="round"/>
  </g>
</svg>
