<svg width="500" height="400" viewBox="0 0 500 400" xmlns="http://www.w3.org/2000/svg">
  <!-- Hospital Building -->
  <rect x="100" y="100" width="300" height="250" fill="#5b8bd3" />
  
  <!-- Roof -->
  <polygon points="100,100 250,50 400,100" fill="#1a2b58" />
  
  <!-- Windows -->
  <rect x="130" y="130" width="40" height="40" fill="#a1d2f7" />
  <rect x="190" y="130" width="40" height="40" fill="#a1d2f7" />
  <rect x="270" y="130" width="40" height="40" fill="#a1d2f7" />
  <rect x="330" y="130" width="40" height="40" fill="#a1d2f7" />
  
  <rect x="130" y="190" width="40" height="40" fill="#a1d2f7" />
  <rect x="190" y="190" width="40" height="40" fill="#a1d2f7" />
  <rect x="270" y="190" width="40" height="40" fill="#a1d2f7" />
  <rect x="330" y="190" width="40" height="40" fill="#a1d2f7" />
  
  <rect x="130" y="250" width="40" height="40" fill="#a1d2f7" />
  <rect x="190" y="250" width="40" height="40" fill="#a1d2f7" />
  <rect x="270" y="250" width="40" height="40" fill="#a1d2f7" />
  <rect x="330" y="250" width="40" height="40" fill="#a1d2f7" />
  
  <!-- Door -->
  <rect x="230" y="290" width="40" height="60" fill="#1a2b58" />
  
  <!-- Sign -->
  <rect x="220" y="200" width="60" height="40" fill="white" />
  <path d="M250 180 L260 200 L240 200 Z" fill="white" />
  <path d="M240 210 h20 m-10 -10 v20" stroke="#ff0000" stroke-width="4" />
  
  <!-- Ground -->
  <rect x="50" y="350" width="400" height="20" fill="#3c4c3c" />
  
  <!-- Path to Door -->
  <path d="M250 350 L250 400" stroke="#3c4c3c" stroke-width="20" />
</svg>
